<svg width="20" height="23" viewBox="0 0 20 23" fill="#000" xmlns="http://www.w3.org/2000/svg">
<path fill-rule="evenodd" clip-rule="evenodd" d="M10.6139 0.710648C10.2528 0.429784 9.74717 0.429784 9.38606 0.710648L0.386059 7.71065C0.142473 7.9001 0 8.19141 0 8.5V19.5C0 20.2957 0.31607 21.0587 0.87868 21.6213C1.44129 22.1839 2.20435 22.5 3 22.5H17C17.7957 22.5 18.5587 22.1839 19.1213 21.6213C19.6839 21.0587 20 20.2957 20 19.5V8.5C20 8.19141 19.8575 7.9001 19.6139 7.71065L10.6139 0.710648ZM14 20.5H17C17.2652 20.5 17.5196 20.3946 17.7071 20.2071C17.8946 20.0196 18 19.7652 18 19.5V8.98908L10 2.76686L2 8.98908V19.5C2 19.7652 2.10536 20.0196 2.29289 20.2071C2.48043 20.3946 2.73478 20.5 3 20.5H6V11.5C6 10.9477 6.44772 10.5 7 10.5H13C13.5523 10.5 14 10.9477 14 11.5V20.5ZM8 20.5V12.5H12V20.5H8Z" />
</svg>
