<svg width="23" height="23" viewBox="0 0 23 23" fill="none" xmlns="http://www.w3.org/2000/svg">
<path d="M10.3333 3.50001H3.33334C2.8029 3.50001 2.29419 3.71073 1.91912 4.0858C1.54405 4.46087 1.33334 4.96958 1.33334 5.50001V19.5C1.33334 20.0304 1.54405 20.5392 1.91912 20.9142C2.29419 21.2893 2.8029 21.5 3.33334 21.5H17.3333C17.8638 21.5 18.3725 21.2893 18.7475 20.9142C19.1226 20.5392 19.3333 20.0304 19.3333 19.5V12.5M17.8333 2.00001C18.2312 1.60219 18.7707 1.37869 19.3333 1.37869C19.8959 1.37869 20.4355 1.60219 20.8333 2.00001C21.2312 2.39784 21.4547 2.9374 21.4547 3.50001C21.4547 4.06262 21.2312 4.60219 20.8333 5.00001L11.3333 14.5L7.33334 15.5L8.33334 11.5L17.8333 2.00001Z" stroke="#000" stroke-width="2" stroke-linecap="round" stroke-linejoin="round"/>
</svg>
