<svg width="11" height="10" viewBox="0 0 11 10" fill="none" xmlns="http://www.w3.org/2000/svg">
<path d="M10.1102 1.4714C10.3706 1.21105 10.3706 0.78894 10.1102 0.52859C9.8499 0.268241 9.42779 0.268241 9.16744 0.52859L5.63884 4.05719L2.11025 0.52859C1.8499 0.268241 1.42779 0.268241 1.16744 0.52859C0.907088 0.78894 0.907088 1.21105 1.16744 1.4714L4.69603 5L1.16744 8.52859C0.907088 8.78894 0.907088 9.21105 1.16744 9.4714C1.42779 9.73175 1.8499 9.73175 2.11025 9.4714L5.63884 5.9428L9.16744 9.4714C9.42779 9.73175 9.8499 9.73175 10.1102 9.4714C10.3706 9.21105 10.3706 8.78894 10.1102 8.52859L6.58165 5L10.1102 1.4714Z" fill="white"/>
</svg>
